<svg width="271" height="49" viewBox="0 0 271 49" fill="none" xmlns="http://www.w3.org/2000/svg">
<rect x="108" y="25" width="10" height="4" fill="#1B262C"/>
<path d="M82.6211 22.824C84.1091 23.28 85.2491 24.048 86.0411 25.128C86.8331 26.184 87.2291 27.492 87.2291 29.052C87.2291 30.444 86.8571 31.668 86.1131 32.724C85.3931 33.756 84.3491 34.56 82.9811 35.136C81.6371 35.712 80.0531 36 78.2291 36H68.6531C67.6691 36 66.9131 35.736 66.3851 35.208C65.8571 34.68 65.5931 33.924 65.5931 32.94V13.68C65.5931 12.696 65.8571 11.94 66.3851 11.412C66.9131 10.884 67.6691 10.62 68.6531 10.62H77.8691C80.5331 10.62 82.6451 11.22 84.2051 12.42C85.7891 13.596 86.5811 15.192 86.5811 17.208C86.5811 18.504 86.2331 19.656 85.5371 20.664C84.8411 21.648 83.8691 22.368 82.6211 22.824ZM72.0371 20.592H76.7531C78.0011 20.592 78.9131 20.4 79.4891 20.016C80.0651 19.632 80.3531 19.02 80.3531 18.18C80.3531 17.292 80.0651 16.644 79.4891 16.236C78.9131 15.828 78.0011 15.624 76.7531 15.624H72.0371V20.592ZM77.4011 30.996C78.7211 30.996 79.6571 30.792 80.2091 30.384C80.7851 29.952 81.0731 29.256 81.0731 28.296C81.0731 27.336 80.7851 26.652 80.2091 26.244C79.6571 25.812 78.7211 25.596 77.4011 25.596H72.0371V30.996H77.4011ZM100.92 36.288C98.9763 36.288 97.2603 35.916 95.7723 35.172C94.3083 34.404 93.1683 33.324 92.3523 31.932C91.5603 30.54 91.1643 28.908 91.1643 27.036C91.1643 25.164 91.5603 23.544 92.3523 22.176C93.1683 20.784 94.3083 19.716 95.7723 18.972C97.2363 18.228 98.9523 17.856 100.92 17.856C102.888 17.856 104.604 18.228 106.068 18.972C107.532 19.716 108.66 20.784 109.452 22.176C110.268 23.544 110.676 25.164 110.676 27.036C110.676 28.908 110.268 30.54 109.452 31.932C108.66 33.324 107.532 34.404 106.068 35.172C104.604 35.916 102.888 36.288 100.92 36.288ZM100.92 31.5C103.2 31.5 104.34 30.012 104.34 27.036C104.34 24.06 103.2 22.572 100.92 22.572C98.6403 22.572 97.5003 24.06 97.5003 27.036C97.5003 30.012 98.6403 31.5 100.92 31.5ZM124.306 36.288C122.362 36.288 120.646 35.916 119.158 35.172C117.694 34.404 116.554 33.324 115.738 31.932C114.946 30.54 114.55 28.908 114.55 27.036C114.55 25.164 114.946 23.544 115.738 22.176C116.554 20.784 117.694 19.716 119.158 18.972C120.622 18.228 122.338 17.856 124.306 17.856C126.274 17.856 127.99 18.228 129.454 18.972C130.918 19.716 132.046 20.784 132.838 22.176C133.654 23.544 134.062 25.164 134.062 27.036C134.062 28.908 133.654 30.54 132.838 31.932C132.046 33.324 130.918 34.404 129.454 35.172C127.99 35.916 126.274 36.288 124.306 36.288ZM124.306 31.5C126.586 31.5 127.726 30.012 127.726 27.036C127.726 24.06 126.586 22.572 124.306 22.572C122.026 22.572 120.886 24.06 120.886 27.036C120.886 30.012 122.026 31.5 124.306 31.5ZM156.44 31.032C157.064 31.632 157.376 32.328 157.376 33.12C157.376 33.912 157.088 34.62 156.512 35.244C155.96 35.868 155.288 36.18 154.496 36.18C153.824 36.18 153.152 35.88 152.48 35.28L145.172 28.332V33.192C145.172 34.176 144.86 34.92 144.236 35.424C143.636 35.928 142.88 36.18 141.968 36.18C141.056 36.18 140.288 35.928 139.664 35.424C139.064 34.92 138.764 34.176 138.764 33.192V13.428C138.764 12.444 139.064 11.7 139.664 11.196C140.288 10.692 141.056 10.44 141.968 10.44C142.88 10.44 143.636 10.692 144.236 11.196C144.86 11.7 145.172 12.444 145.172 13.428V25.632L151.832 18.864C152.432 18.24 153.128 17.928 153.92 17.928C154.688 17.928 155.36 18.228 155.936 18.828C156.536 19.404 156.836 20.064 156.836 20.808C156.836 21.552 156.524 22.236 155.9 22.86L151.976 26.748L156.44 31.032ZM168.29 36.288C166.682 36.288 165.326 36.168 164.222 35.928C163.118 35.688 162.146 35.304 161.306 34.776C160.97 34.608 160.706 34.32 160.514 33.912C160.322 33.504 160.226 33.048 160.226 32.544C160.226 31.896 160.394 31.368 160.73 30.96C161.09 30.528 161.534 30.312 162.062 30.312C162.422 30.312 162.758 30.36 163.07 30.456C163.382 30.528 163.766 30.66 164.222 30.852C164.99 31.116 165.662 31.32 166.238 31.464C166.838 31.608 167.594 31.68 168.506 31.68C169.154 31.68 169.658 31.596 170.018 31.428C170.402 31.236 170.594 30.972 170.594 30.636C170.594 30.372 170.498 30.168 170.306 30.024C170.138 29.88 169.802 29.748 169.298 29.628C168.794 29.484 167.942 29.292 166.742 29.052C164.606 28.644 163.058 28.032 162.098 27.216C161.162 26.376 160.694 25.2 160.694 23.688C160.694 22.584 161.03 21.588 161.702 20.7C162.398 19.812 163.346 19.116 164.546 18.612C165.746 18.108 167.09 17.856 168.578 17.856C169.658 17.856 170.702 17.988 171.71 18.252C172.742 18.516 173.654 18.888 174.446 19.368C175.19 19.8 175.562 20.496 175.562 21.456C175.562 22.128 175.382 22.692 175.022 23.148C174.662 23.604 174.218 23.832 173.69 23.832C173.066 23.832 172.322 23.628 171.458 23.22C170.882 22.956 170.366 22.764 169.91 22.644C169.478 22.5 168.962 22.428 168.362 22.428C167.762 22.428 167.294 22.524 166.958 22.716C166.622 22.884 166.454 23.136 166.454 23.472C166.454 23.856 166.682 24.156 167.138 24.372C167.618 24.588 168.554 24.828 169.946 25.092C172.274 25.5 173.918 26.124 174.878 26.964C175.838 27.78 176.318 28.968 176.318 30.528C176.318 32.28 175.586 33.684 174.122 34.74C172.682 35.772 170.738 36.288 168.29 36.288ZM192.815 17.856C194.879 17.856 196.415 18.492 197.423 19.764C198.431 21.012 198.935 22.92 198.935 25.488V33.264C198.935 34.176 198.647 34.896 198.071 35.424C197.495 35.952 196.715 36.216 195.731 36.216C194.747 36.216 193.967 35.952 193.391 35.424C192.815 34.896 192.527 34.176 192.527 33.264V25.344C192.527 23.616 191.783 22.752 190.295 22.752C189.335 22.752 188.567 23.064 187.991 23.688C187.439 24.288 187.163 25.104 187.163 26.136V33.264C187.163 34.176 186.875 34.896 186.299 35.424C185.723 35.952 184.943 36.216 183.959 36.216C182.975 36.216 182.195 35.952 181.619 35.424C181.043 34.896 180.755 34.176 180.755 33.264V13.32C180.755 12.48 181.055 11.796 181.655 11.268C182.255 10.716 183.047 10.44 184.031 10.44C184.967 10.44 185.723 10.692 186.299 11.196C186.875 11.7 187.163 12.372 187.163 13.212V20.412C187.811 19.572 188.615 18.936 189.575 18.504C190.535 18.072 191.615 17.856 192.815 17.856ZM218.752 30.312C219.304 30.312 219.748 30.528 220.084 30.96C220.444 31.392 220.624 31.956 220.624 32.652C220.624 33.612 220.156 34.344 219.22 34.848C218.404 35.256 217.432 35.604 216.304 35.892C215.2 36.156 214.18 36.288 213.244 36.288C211.276 36.288 209.56 35.916 208.096 35.172C206.632 34.428 205.504 33.36 204.712 31.968C203.92 30.576 203.524 28.944 203.524 27.072C203.524 25.296 203.896 23.712 204.64 22.32C205.408 20.904 206.464 19.812 207.808 19.044C209.176 18.252 210.712 17.856 212.416 17.856C214.072 17.856 215.524 18.216 216.772 18.936C218.02 19.656 218.98 20.676 219.652 21.996C220.348 23.316 220.696 24.864 220.696 26.64C220.696 27.192 220.564 27.624 220.3 27.936C220.06 28.224 219.7 28.368 219.22 28.368H209.716C209.884 29.52 210.256 30.348 210.832 30.852C211.408 31.356 212.26 31.608 213.388 31.608C213.988 31.608 214.54 31.548 215.044 31.428C215.548 31.284 216.112 31.092 216.736 30.852C217.096 30.708 217.444 30.588 217.78 30.492C218.14 30.372 218.464 30.312 218.752 30.312ZM212.596 22.176C211.756 22.176 211.084 22.452 210.58 23.004C210.076 23.532 209.776 24.312 209.68 25.344H215.332C215.188 23.232 214.276 22.176 212.596 22.176ZM228.621 36.216C227.709 36.216 226.941 35.976 226.317 35.496C225.717 34.992 225.417 34.248 225.417 33.264V13.428C225.417 12.444 225.717 11.7 226.317 11.196C226.941 10.692 227.709 10.44 228.621 10.44C229.533 10.44 230.289 10.692 230.889 11.196C231.513 11.7 231.825 12.444 231.825 13.428V33.264C231.825 34.248 231.513 34.992 230.889 35.496C230.289 35.976 229.533 36.216 228.621 36.216ZM247.638 15.192C246.774 15.264 246.162 15.54 245.802 16.02C245.466 16.476 245.298 17.088 245.298 17.856V18.288H247.278C249.198 18.288 250.158 19.068 250.158 20.628C250.158 22.212 249.198 23.004 247.278 23.004H245.298V33.192C245.298 34.176 244.986 34.92 244.362 35.424C243.762 35.928 243.006 36.18 242.094 36.18C241.182 36.18 240.414 35.928 239.79 35.424C239.19 34.92 238.89 34.176 238.89 33.192V23.004H237.846C235.926 23.004 234.966 22.212 234.966 20.628C234.966 19.068 235.926 18.288 237.846 18.288H238.89C238.938 15.984 239.622 14.184 240.942 12.888C242.286 11.568 244.098 10.824 246.378 10.656L247.314 10.584C247.506 10.56 247.758 10.548 248.07 10.548C249.102 10.548 249.846 10.74 250.302 11.124C250.758 11.508 250.986 12.06 250.986 12.78C250.986 13.5 250.77 14.064 250.338 14.472C249.906 14.856 249.318 15.072 248.574 15.12L247.638 15.192ZM260.118 36.288C258.51 36.288 257.154 36.168 256.05 35.928C254.946 35.688 253.974 35.304 253.134 34.776C252.798 34.608 252.534 34.32 252.342 33.912C252.15 33.504 252.054 33.048 252.054 32.544C252.054 31.896 252.222 31.368 252.558 30.96C252.918 30.528 253.362 30.312 253.89 30.312C254.25 30.312 254.586 30.36 254.898 30.456C255.21 30.528 255.594 30.66 256.05 30.852C256.818 31.116 257.49 31.32 258.066 31.464C258.666 31.608 259.422 31.68 260.334 31.68C260.982 31.68 261.486 31.596 261.846 31.428C262.23 31.236 262.422 30.972 262.422 30.636C262.422 30.372 262.326 30.168 262.134 30.024C261.966 29.88 261.63 29.748 261.126 29.628C260.622 29.484 259.77 29.292 258.57 29.052C256.434 28.644 254.886 28.032 253.926 27.216C252.99 26.376 252.522 25.2 252.522 23.688C252.522 22.584 252.858 21.588 253.53 20.7C254.226 19.812 255.174 19.116 256.374 18.612C257.574 18.108 258.918 17.856 260.406 17.856C261.486 17.856 262.53 17.988 263.538 18.252C264.57 18.516 265.482 18.888 266.274 19.368C267.018 19.8 267.39 20.496 267.39 21.456C267.39 22.128 267.21 22.692 266.85 23.148C266.49 23.604 266.046 23.832 265.518 23.832C264.894 23.832 264.15 23.628 263.286 23.22C262.71 22.956 262.194 22.764 261.738 22.644C261.306 22.5 260.79 22.428 260.19 22.428C259.59 22.428 259.122 22.524 258.786 22.716C258.45 22.884 258.282 23.136 258.282 23.472C258.282 23.856 258.51 24.156 258.966 24.372C259.446 24.588 260.382 24.828 261.774 25.092C264.102 25.5 265.746 26.124 266.706 26.964C267.666 27.78 268.146 28.968 268.146 30.528C268.146 32.28 267.414 33.684 265.95 34.74C264.51 35.772 262.566 36.288 260.118 36.288Z" fill="#1B262C"/>
<path d="M13.3333 4V37.3333H20V4H13.3333ZM20 8.44444L28.8889 37.3333L35.5556 35.1111L26.6667 6.22222L20 8.44444ZM4.44444 8.44444V37.3333H11.1111V8.44444H4.44444ZM0 39.5556V44H40V39.5556H0Z" fill="#1B262C"/>
<path d="M9.5 8H3V37H9.5V8Z" fill="#15B7B9"/>
<path d="M18.5 3H12V37H18.5V3Z" fill="#1E56A0"/>
<path d="M25.0349 5.83225L18.2982 7.86646L27.0976 37.0075L33.8343 34.9733L25.0349 5.83225Z" fill="#FF2E63"/>
</svg>
