<svg width="27" height="27" viewBox="0 0 27 27" fill="none" xmlns="http://www.w3.org/2000/svg">
<path d="M26.8459 24.2822L18.1829 15.7892C19.5272 14.0853 20.2544 12.0021 20.2544 9.811C20.2544 7.1882 19.2104 4.7289 17.3223 2.87462C15.4343 1.02034 12.9191 0 10.2472 0C7.57529 0 5.06014 1.02361 3.17211 2.87462C1.28074 4.72563 0.23999 7.1882 0.23999 9.811C0.23999 12.4305 1.28408 14.8964 3.17211 16.7474C5.06014 18.6017 7.57195 19.622 10.2472 19.622C12.4822 19.622 14.6037 18.9091 16.3416 17.5944L25.0045 26.0842C25.0299 26.1091 25.0601 26.1289 25.0933 26.1424C25.1265 26.1559 25.1621 26.1628 25.198 26.1628C25.2339 26.1628 25.2695 26.1559 25.3027 26.1424C25.3359 26.1289 25.3661 26.1091 25.3915 26.0842L26.8459 24.6616C26.8713 24.6367 26.8914 24.6071 26.9052 24.5746C26.919 24.542 26.926 24.5071 26.926 24.4719C26.926 24.4367 26.919 24.4018 26.9052 24.3693C26.8914 24.3367 26.8713 24.3071 26.8459 24.2822ZM15.531 14.9912C14.1167 16.3746 12.242 17.1366 10.2472 17.1366C8.25244 17.1366 6.37776 16.3746 4.9634 14.9912C3.55238 13.6046 2.77515 11.7667 2.77515 9.811C2.77515 7.85534 3.55238 6.01415 4.9634 4.63079C6.37776 3.24744 8.25244 2.48545 10.2472 2.48545C12.242 2.48545 14.12 3.24417 15.531 4.63079C16.942 6.01742 17.7193 7.85534 17.7193 9.811C17.7193 11.7667 16.942 13.6079 15.531 14.9912Z" fill="#1B262C"/>
</svg>
